<svg width="512" height="512" viewBox="0 0 512 512" fill="none" xmlns="http://www.w3.org/2000/svg">
<path fill-rule="evenodd" clip-rule="evenodd" d="M340.601 367.19C338.261 367.922 336.139 368.58 334.164 369.166C332.262 369.751 329.848 370.409 326.849 371.067C324.288 371.58 321.582 372.092 318.729 372.457C315.876 372.896 312.803 373.043 309.438 373.043C303.22 373.043 297.734 372.384 292.979 371.067C288.297 369.751 284.493 367.629 281.64 364.776C278.787 361.996 277.031 358.485 276.3 354.242C275.568 349.999 276.153 344.952 277.909 339.246C279.665 333.832 282.225 329.077 285.517 324.688C288.882 320.519 292.905 316.861 297.587 313.935C302.196 311.082 307.244 308.96 312.95 307.424C318.655 305.961 324.654 305.229 331.092 305.229C335.7 305.229 340.163 305.668 344.625 306.473C348.941 307.351 353.623 308.814 358.67 310.935L355.452 321.25H354.574C350.843 318.251 346.819 316.056 342.577 314.739C338.334 313.35 333.579 312.618 328.165 312.618C323.776 312.618 319.68 313.13 315.803 314.227C311.999 315.252 308.341 316.934 304.903 319.202C301.538 321.396 298.538 324.176 295.978 327.541C293.418 330.906 291.516 334.71 290.126 339.173C288.663 343.781 288.224 347.658 288.809 351.023C289.394 354.315 290.638 357.022 292.613 359.07C294.588 361.192 297.295 362.801 300.513 363.898C303.805 364.923 307.463 365.435 311.486 365.435C317.046 365.435 322.386 364.703 327.8 363.24C333.067 361.777 338.334 359.656 343.454 356.803H344.259L340.601 367.19Z" fill="black"/>
<path fill-rule="evenodd" clip-rule="evenodd" d="M423.045 353.218C422.24 355.779 420.631 358.266 418.29 360.753C415.949 363.24 413.096 365.288 409.731 367.044C406.074 368.946 401.977 370.336 397.442 371.433C393.052 372.457 387.932 372.97 382.079 372.97C375.861 372.97 370.375 372.531 365.62 371.653C360.938 370.775 356.329 369.458 351.721 367.776L355.159 356.949H355.964C359.475 359.656 363.791 361.777 369.131 363.313C374.325 364.776 379.446 365.581 384.567 365.581C391.662 365.581 397.588 364.557 402.196 362.509C406.805 360.46 409.658 357.827 410.755 354.462C411.633 351.609 411.414 349.414 409.951 348.097C408.488 346.708 406 345.683 402.489 344.879C399.782 344.293 396.783 343.781 393.491 343.416C390.273 343.05 386.834 342.538 383.25 341.953C376.008 340.782 370.96 338.661 368.18 335.735C365.4 332.735 364.815 328.858 366.351 324.103C368.107 318.617 372.569 314.154 379.812 310.57C387.054 307.058 395.393 305.303 404.757 305.303C410.829 305.303 416.242 305.742 421.143 306.62C425.898 307.497 429.995 308.595 433.579 309.838L430.287 320.08H429.41C426.776 317.958 422.972 316.276 418.071 314.886C413.169 313.496 407.976 312.764 402.27 312.764C396.125 312.764 390.931 313.715 386.469 315.691C382.152 317.666 379.519 320.08 378.568 323.079C377.69 325.786 377.983 327.98 379.3 329.516C380.616 331.053 383.542 332.296 387.932 333.028C390.272 333.467 393.638 333.906 398.027 334.491C402.416 335.076 406.074 335.735 409 336.32C414.998 337.563 419.168 339.538 421.655 342.099C424.069 344.879 424.508 348.536 423.045 353.218Z" fill="black"/>
<path fill-rule="evenodd" clip-rule="evenodd" d="M448.869 306.474H460.354L442.578 363.387H491.59L488.737 372.019H438.481C434.311 372.019 430.873 368.654 430.873 364.411C430.873 363.753 430.946 362.948 431.166 362.29L448.869 306.474Z" fill="black"/>
<path fill-rule="evenodd" clip-rule="evenodd" d="M25.4574 286.795C28.9687 303.767 42.6484 314.374 58.6689 314.374C73.2265 314.374 85.0041 304.937 89.1739 291.769C89.5396 293.891 90.2712 296.159 90.2712 298.426C90.2712 321.835 69.9346 340.782 46.4523 340.782C28.6761 340.782 14.1917 331.345 7.75425 315.837C2.26775 304.717 0 288.916 0 275.164C0 222.127 41.7705 179.04 93.7094 175.09C93.7094 175.09 54.4261 183.21 34.6015 225.712C34.6015 225.712 27.0667 238.294 24.5795 260.826C24.5795 260.972 22.3118 271.579 25.4574 286.795Z" fill="black"/>
<path d="M34.0161 263.313C33.7234 272.969 34.6744 281.674 37.4543 290.38C40.1609 298.5 48.8662 303.84 57.2788 303.84C67.6666 303.84 76.2255 295.354 76.2255 284.893C76.2255 281.089 75.0551 277.358 73.0799 274.359C65.6914 263.971 60.4975 251.243 60.4975 237.417C60.4975 207.351 82.0046 182.04 110.022 175.31C67.4471 181.747 35.4791 219.714 34.0161 263.313Z" fill="black"/>
<path fill-rule="evenodd" clip-rule="evenodd" d="M93.7822 280.577C105.048 290.453 113.021 303.694 113.021 319.056C113.021 345.464 91.9533 364.996 65.2524 366.825C64.3745 366.898 63.2041 366.825 62.3994 366.752C65.4719 367.264 69.0564 368.069 72.202 367.922C104.609 366.094 134.748 341.075 137.528 306.108C137.528 294.403 134.748 283.577 127.213 273.555C94.2942 240.124 94.5869 220.738 94.5869 218.47C94.5869 200.987 108.779 186.868 126.189 186.868C126.189 186.868 147.623 185.844 171.544 203.327C157.718 190.672 141.039 180.211 119.02 179.845C91.7339 180.943 72.4214 202.45 72.7872 227.249C72.5677 232.004 73.0066 236.758 73.3724 241.879C74.5429 257.315 83.7602 271.653 93.7822 280.577Z" fill="black"/>
<path fill-rule="evenodd" clip-rule="evenodd" d="M51.9389 362.143C42.2095 358.632 32.9922 351.682 25.3843 341.587C25.3843 341.587 40.0881 348.171 59.4737 346.049C59.4737 346.049 90.4176 343.708 100.366 311.813C100.366 311.813 105.999 348.683 67.4474 361.411C67.4474 361.411 63.2777 362.728 59.108 363.021C55.0845 363.313 51.9389 362.143 51.9389 362.143Z" fill="black"/>
<path d="M145.868 306.181C145.868 342.172 113.9 371.434 74.3968 371.434C73.1532 371.434 71.9096 371.36 70.666 371.287C85.5893 377.432 101.464 376.189 101.464 376.189C126.701 373.994 153.11 344.806 153.11 316.642C153.11 302.231 151.72 286.942 135.114 269.385C135.26 269.385 145.868 288.624 145.868 306.181Z" fill="black"/>
<path fill-rule="evenodd" clip-rule="evenodd" d="M159.986 300.036C160.206 300.109 155.816 282.113 149.379 272.53C143.453 263.679 138.04 259.728 132.261 254.681C128.603 251.828 121.142 245.463 121.142 245.463C109.657 235.076 106.95 229.882 106.95 229.882C104.536 226.297 103.146 221.981 103.146 217.446C103.146 206.692 110.827 197.548 121.434 194.622C147.257 188.331 167.667 205.595 167.667 205.595C201.757 231.857 201.976 276.261 201.976 276.261C201.976 309.18 189.101 332.589 166.716 352.121C190.491 326.59 195.539 296.086 195.539 296.086C200.44 267.702 190.564 247 190.564 247C164.814 192.208 128.75 206.18 128.75 206.18C121.946 207.936 116.972 214.081 116.972 221.469C116.972 222.347 116.314 232.223 131.456 245.975C137.162 251.389 144.331 256.802 149.964 264.922C158.743 277.431 160.425 291.696 159.986 300.036Z" fill="black"/>
<path fill-rule="evenodd" clip-rule="evenodd" d="M134.676 373.848C147.038 372.531 164.961 368.581 164.961 368.581C212.437 356.218 223.118 337.344 272.496 301.865C321.802 266.459 373.741 268.946 373.741 268.946C373.741 268.946 369.132 267.41 355.16 265.288C341.26 263.167 323.118 262.508 323.118 262.508C259.841 263.24 256.988 281.235 221.582 318.324C186.175 355.413 153.11 360.826 153.11 360.826C171.984 345.025 186.102 316.934 188.151 286.137C188.882 274.213 186.541 262.362 182.518 251.828C182.518 251.828 167.082 212.398 138.114 212.837C138.114 212.837 121.362 212.545 126.263 226.736C126.263 226.736 128.531 232.003 139.577 241.221C158.304 255.047 168.326 278.09 168.326 302.889C168.326 338.295 149.014 361.997 121.435 374.286C121.288 374.067 125.604 374.725 134.676 373.848Z" fill="black"/>
<path d="M205.634 153.51C174.397 181.015 148.428 177.285 148.428 177.285C172.349 184.234 185.663 201.937 187.931 203.108C190.198 204.205 203.805 202.596 203.805 202.596C234.968 199.011 246.892 190.086 269.935 167.848C289.906 148.462 308.707 144.512 308.707 144.512C300.44 142.829 270.228 136.758 270.228 136.758C264.083 135.514 258.377 135.002 253.037 135.002C221.727 134.782 205.634 153.51 205.634 153.51Z" fill="black"/>
<path d="M437.676 192.939C429.263 195.865 416.023 197.328 416.023 197.328C405.269 197.987 398.466 196.524 391.516 195.134C381.348 193.012 370.668 190.891 346.454 195.353C304.025 203.181 262.693 266.531 262.693 266.531C262.693 266.531 265.985 265.507 272.496 261.996C279.08 258.485 283.323 256.436 283.323 256.436C308.122 246.341 324.069 247.877 324.069 247.877C331.238 247.292 339.285 247.877 347.697 248.536C363.572 249.706 381.129 250.95 398.685 243.854C425.459 233.027 450.917 186.721 450.917 186.721C450.917 186.721 445.284 190.306 437.676 192.939Z" fill="black"/>
<path d="M194.002 209.618C194.002 209.618 194.076 209.618 194.149 209.691C194.076 209.618 194.002 209.545 194.002 209.618ZM418.949 163.239C401.392 171.652 393.711 176.48 382.884 175.675C373.594 174.944 366.205 169.53 366.205 169.53C340.455 152.193 310.755 144.878 276.666 181.966C238.114 223.883 196.928 210.716 194.149 209.838C194.514 210.13 195.904 211.959 200.879 220.884C208.34 234.271 211.413 253.071 211.413 253.071C221.874 304.059 191.515 333.101 191.515 333.101C202.634 324.249 209.511 320.153 229.335 296.671C250.038 272.018 254.134 258.924 284.859 218.909C308.048 188.77 338.261 181.381 356.695 179.918C356.695 179.918 367.668 178.382 383.25 181.82C396.71 184.746 412.584 192.793 451.868 175.382C494.516 156.436 512 161.044 512 161.044C512 161.044 497.808 145.829 472.058 145.829C443.236 145.755 435.408 155.338 418.949 163.239Z" fill="black"/>
</svg>
